<?xml version="1.0" encoding="UTF-8"?>
<svg version="1.1" xmlns="http://www.w3.org/2000/svg" width="403" height="372">
<path d="M0 0 C132.99 0 265.98 0 403 0 C403 122.76 403 245.52 403 372 C270.01 372 137.02 372 0 372 C0 249.24 0 126.48 0 0 Z " fill="#1B1B1B" transform="translate(0,0)"/>
<path d="M0 0 C0.66 0 1.32 0 2 0 C2.54527344 1.17433594 3.09054688 2.34867187 3.65234375 3.55859375 C7.3882535 11.55287128 11.17983742 19.4853523 15.375 27.25 C21.92774654 39.41382417 27.6953295 51.96801634 33.5703125 64.46875 C38.03451458 73.94137821 42.62620586 83.305965 47.60180664 92.52246094 C50.32016774 97.58193195 52.73624306 102.72152082 55 108 C61.15264581 96.57949152 66.95393126 85.03704801 72.50976562 73.31445312 C76.15893956 65.65166117 80.00416181 58.11845954 84.0546875 50.66015625 C86.22027191 47.03772393 86.22027191 47.03772393 87 43 C85.35 42.34 83.7 41.68 82 41 C85.86449213 36.84342416 90.00200836 33.77506682 94.75 30.6875 C95.43449219 30.23310547 96.11898437 29.77871094 96.82421875 29.31054688 C101.85226739 26 101.85226739 26 103 26 C103.72413373 29.31143006 104.16354255 32.47844221 104.31640625 35.86328125 C104.37924805 37.19262695 104.37924805 37.19262695 104.44335938 38.54882812 C104.48267578 39.46083984 104.52199219 40.37285156 104.5625 41.3125 C104.60568359 42.24384766 104.64886719 43.17519531 104.69335938 44.13476562 C104.79897225 46.42304454 104.90107752 48.71142372 105 51 C102.61435923 50.42415568 100.33317216 49.77772405 98 49 C97.64421875 50.18529297 97.64421875 50.18529297 97.28125 51.39453125 C95.65091037 55.98234674 93.60605909 60.30152027 91.5 64.6875 C91.05712646 65.61449707 90.61425293 66.54149414 90.15795898 67.49658203 C86.87316027 74.31711368 83.39407098 81.0153163 79.82446289 87.68994141 C76.02067835 94.85026776 72.5290751 102.14551141 69.05957031 109.47241211 C64.83779703 118.3821065 60.44855295 127.20175082 56 136 C53.39327703 133.67636006 52.05160453 131.39217233 50.58203125 128.23828125 C49.90624023 126.80452148 49.90624023 126.80452148 49.21679688 125.34179688 C48.75337891 124.34212891 48.28996094 123.34246094 47.8125 122.3125 C43.71088348 113.54373203 39.46662892 104.8614319 35.11471558 96.21511841 C31.44287194 88.91857694 27.78438711 81.61529474 24.125 74.3125 C23.68690002 73.43824371 23.24880005 72.56398743 22.79742432 71.66323853 C17.32154203 60.72836014 11.88050144 49.78457099 6.71533203 38.69848633 C5.28882236 35.64336131 3.87453214 32.81179821 2 30 C2 29.01 2 28.02 2 27 C1.34 27 0.68 27 0 27 C-0.07476562 27.65226562 -0.14953125 28.30453125 -0.2265625 28.9765625 C-1.29576117 33.15615728 -3.30592063 36.6088062 -5.375 40.375 C-9.24188088 47.561245 -12.87842663 54.8131861 -16.375 62.1875 C-22.09520984 74.19994066 -28.04988183 86.09976366 -34 98 C-16.18 98 1.64 98 20 98 C18.22749825 102.43125437 16.13437475 106.73125051 14 111 C-8.44 111 -30.88 111 -54 111 C-52.6383728 107.59593201 -51.25548744 104.33918117 -49.6796875 101.04296875 C-49.23133545 100.10428955 -48.7829834 99.16561035 -48.32104492 98.19848633 C-47.8438501 97.20486084 -47.36665527 96.21123535 -46.875 95.1875 C-46.37782471 94.15069092 -45.88064941 93.11388184 -45.3684082 92.0456543 C-41.72839897 84.47370674 -38.0150996 76.94331149 -34.23144531 69.44238281 C-31.50134983 64.02765735 -28.77986241 58.60862369 -26.0625 53.1875 C-25.75699219 52.5783374 -25.45148438 51.9691748 -25.13671875 51.34155273 C-21.02351408 43.13366152 -17.01808577 34.88425476 -13.13891602 26.56323242 C-10.23446131 20.38037362 -7.08350704 14.34430286 -3.82885742 8.33911133 C-2.33734638 5.58054157 -0.99408132 2.98224396 0 0 Z " fill="#F7F7F7" transform="translate(141,102)"/>
<path d="M0 0 C0.66 0 1.32 0 2 0 C6.65921528 9.19509838 11.18645645 18.44632687 15.625 27.75 C20.02545512 36.96755057 24.53632579 46.1250152 29.125 55.25 C33.72485463 64.3995199 38.22545381 73.58520648 42.60083008 82.84399414 C45.90123363 89.82103773 49.32385825 96.72920583 52.79980469 103.62011719 C66.64992534 131.08370061 66.64992534 131.08370061 73.01904297 144.68457031 C75.57168868 150.1316587 78.23872271 155.50463223 81.00390625 160.84765625 C82 163 82 163 82 165 C54.61 165 27.22 165 -1 165 C-2.65 161.37 -4.3 157.74 -6 154 C16.77 154 39.54 154 63 154 C54.16337803 134.71380636 54.16337803 134.71380636 44.58203125 115.9375 C41.09676378 109.36061418 37.943239 102.62551773 34.74902344 95.90405273 C30.86932131 87.76001219 26.86669815 79.68295632 22.8125 71.625 C18.02755654 62.10792415 13.35955153 52.54973793 8.84375 42.90234375 C6.9156438 38.79123255 4.87849663 34.7402848 2.77734375 30.71484375 C2 29 2 29 2 27 C1.34 27 0.68 27 0 27 C-0.42539063 28.08958008 -0.42539063 28.08958008 -0.859375 29.20117188 C-1.90953141 31.77801114 -3.04382177 34.27440959 -4.25 36.78125 C-4.68860352 37.69527588 -5.12720703 38.60930176 -5.57910156 39.55102539 C-6.28244629 41.01076782 -6.28244629 41.01076782 -7 42.5 C-7.99500961 44.57150991 -8.9897964 46.64312687 -9.984375 48.71484375 C-10.48775391 49.76269043 -10.99113281 50.81053711 -11.50976562 51.89013672 C-13.34774106 55.72567589 -15.17063212 59.56825153 -16.99267578 63.41137695 C-21.22229236 72.32970829 -25.53251405 81.1981651 -30 90 C-28.68 90.99 -27.36 91.98 -26 93 C-27.08946401 96.26839203 -27.47918038 96.61138792 -30.203125 98.41015625 C-30.85410156 98.84263672 -31.50507813 99.27511719 -32.17578125 99.72070312 C-33.20251953 100.38489258 -33.20251953 100.38489258 -34.25 101.0625 C-34.91902344 101.50916016 -35.58804688 101.95582031 -36.27734375 102.41601562 C-39.86939427 104.77660678 -42.92681676 106.3707267 -47 108 C-47.33 99.75 -47.66 91.5 -48 83 C-45.69 83.66 -43.38 84.32 -41 85 C-40.72615479 84.13157471 -40.45230957 83.26314941 -40.17016602 82.3684082 C-39.05236068 79.15072402 -37.75281718 76.17332675 -36.27734375 73.10546875 C-35.47659424 71.43822754 -35.47659424 71.43822754 -34.65966797 69.73730469 C-34.09135254 68.56586914 -33.52303711 67.39443359 -32.9375 66.1875 C-32.64554749 65.58296997 -32.35359497 64.97843994 -32.05279541 64.35559082 C-28.29857997 56.58415681 -24.42977938 48.89264019 -20.32080078 41.30273438 C-16.10282212 33.4497654 -12.34767817 25.37358236 -8.53125 17.3203125 C-5.77326193 11.50268142 -2.92367861 5.73633144 0 0 Z " fill="#F9F9F9" transform="translate(238,46)"/>
<path d="M0 0 C3.93244436 2.04953668 6.40422343 4.13204365 7.96875 8.2734375 C8.66667086 12.9844033 8.42429524 16.32730507 6.34375 20.6484375 C3.16991523 24.15636015 0.52033753 25.94885393 -4.2421875 26.5546875 C-10.07075944 26.78705582 -13.32562327 25.59254613 -17.78125 21.7734375 C-20.52333311 18.48293777 -20.36546406 14.63020548 -20.3125 10.55859375 C-19.74938252 5.98326426 -17.22614606 3.29763412 -13.84375 0.3984375 C-9.23944071 -1.44328621 -4.71308238 -1.68583331 0 0 Z " fill="#1F1F1F" transform="translate(143.03125,267.7265625)"/>
<path d="M0 0 C1.32 0 2.64 0 4 0 C4 8.91 4 17.82 4 27 C2.68 27 1.36 27 0 27 C-0.495 17.595 -0.495 17.595 -1 8 C-3.31 10.97 -5.62 13.94 -8 17 C-10.96404505 14.19195732 -13.44499019 11.81684226 -15 8 C-15.66 8 -16.32 8 -17 8 C-17 14.27 -17 20.54 -17 27 C-18.32 27 -19.64 27 -21 27 C-21 18.42 -21 9.84 -21 1 C-15.80869384 2.03826123 -15.26624409 2.25934554 -12.1875 6.0625 C-11.58292969 6.79597656 -10.97835937 7.52945312 -10.35546875 8.28515625 C-9.90816406 8.85105469 -9.46085937 9.41695313 -9 10 C-6.42366546 7.49523031 -4.06598072 5.0899737 -1.9375 2.1875 C-1.298125 1.465625 -0.65875 0.74375 0 0 Z " fill="#E8E8E8" transform="translate(111,267)"/>
<path d="M0 0 C5.41543537 1.08308707 5.81188089 1.38516751 8.8125 5.5625 C9.41707031 6.38878906 10.02164063 7.21507812 10.64453125 8.06640625 C11.09183594 8.70449219 11.53914062 9.34257812 12 10 C12.7425 9.2575 13.485 8.515 14.25 7.75 C15.1575 6.8425 16.065 5.935 17 5 C17.680625 4.236875 18.36125 3.47375 19.0625 2.6875 C21 1 21 1 25 1 C25 9.58 25 18.16 25 27 C23.68 27 22.36 27 21 27 C21 20.73 21 14.46 21 8 C20.34 8 19.68 8 19 8 C18.731875 8.5775 18.46375 9.155 18.1875 9.75 C16.9611378 12.07363365 15.75156566 14.03824646 14 16 C13.01 16 12.02 16 11 16 C8.72137289 13.516241 6.94354369 10.76415103 5 8 C4.67 14.27 4.34 20.54 4 27 C2.68 27 1.36 27 0 27 C0 18.09 0 9.18 0 0 Z " fill="#EAEAEA" transform="translate(208,267)"/>
<path d="M0 0 C3.93244436 2.04953668 6.40422343 4.13204365 7.96875 8.2734375 C8.66667086 12.9844033 8.42429524 16.32730507 6.34375 20.6484375 C3.16991523 24.15636015 0.52033753 25.94885393 -4.2421875 26.5546875 C-10.07075944 26.78705582 -13.32562327 25.59254613 -17.78125 21.7734375 C-20.52333311 18.48293777 -20.36546406 14.63020548 -20.3125 10.55859375 C-19.74938252 5.98326426 -17.22614606 3.29763412 -13.84375 0.3984375 C-9.23944071 -1.44328621 -4.71308238 -1.68583331 0 0 Z M-15.03125 7.2734375 C-16.56339888 10.33773526 -16.26063548 12.8900017 -16.03125 16.2734375 C-14.76126681 19.13089967 -13.7474497 20.75481013 -11.21875 22.5859375 C-8.25144177 23.51852009 -6.13440844 23.64581651 -3.03125 23.2734375 C1.19356746 20.9975552 1.19356746 20.9975552 3.96875 17.2734375 C4.44722852 14.1905822 4.5150989 11.34996529 3.96875 8.2734375 C1.38373142 5.10678974 -0.09121956 3.6969919 -4.03515625 2.8359375 C-8.97219093 2.53615551 -11.6517084 3.79148555 -15.03125 7.2734375 Z " fill="#EBEBEB" transform="translate(143.03125,267.7265625)"/>
<path d="M0 0 C4.53406189 1.13351547 5.38879838 2.13098761 8.375 5.5625 C9.15746094 6.4596875 9.93992187 7.356875 10.74609375 8.28125 C13.22645092 11.27315397 15.56703494 14.32996116 17.80859375 17.50390625 C18.94705759 19.14898066 18.94705759 19.14898066 21 20 C21 13.73 21 7.46 21 1 C21.99 1 22.98 1 24 1 C24 9.58 24 18.16 24 27 C22.68 27 21.36 27 20 27 C17.88671875 24.875 17.88671875 24.875 15.6875 22 C14.90890625 21.00355469 14.1303125 20.00710938 13.328125 18.98046875 C12.55984375 17.99691406 11.7915625 17.01335937 11 16 C8.70024501 13.30156485 6.35251616 10.65283738 4 8 C3.67 14.27 3.34 20.54 3 27 C2.01 27 1.02 27 0 27 C0 18.09 0 9.18 0 0 Z " fill="#F2F2F2" transform="translate(266,267)"/>
<path d="M0 0 C8.83928571 -0.66964286 8.83928571 -0.66964286 12.5625 2.0625 C15 5 15 5 15.6875 8.5 C15 12 15 12 13.125 14.9375 C8.58644572 17.93294582 5.37188068 17.35812538 0 17 C0 11.39 0 5.78 0 0 Z " fill="#2B2B2B" transform="translate(198,313)"/>
<path d="M0 0 C4.95 0 9.9 0 15 0 C15 1.32 15 2.64 15 4 C11.37 4 7.74 4 4 4 C4 6.64 4 9.28 4 12 C7.63 12 11.26 12 15 12 C15 12.99 15 13.98 15 15 C11.37 15 7.74 15 4 15 C4 17.97 4 20.94 4 24 C7.96 24 11.92 24 16 24 C16 24.99 16 25.98 16 27 C10.72 27 5.44 27 0 27 C0 18.09 0 9.18 0 0 Z " fill="#E3E3E3" transform="translate(242,267)"/>
<path d="M0 0 C7.59 0 15.18 0 23 0 C23 1.32 23 2.64 23 4 C19.7 4 16.4 4 13 4 C13 11.59 13 19.18 13 27 C11.68 27 10.36 27 9 27 C9 19.41 9 11.82 9 4 C6.03 4 3.06 4 0 4 C0 2.68 0 1.36 0 0 Z " fill="#DFDFDF" transform="translate(297,267)"/>
<path d="M0 0 C4.62 0 9.24 0 14 0 C14 0.99 14 1.98 14 3 C10.37 3 6.74 3 3 3 C3 5.64 3 8.28 3 11 C6.63 11 10.26 11 14 11 C14 11.99 14 12.98 14 14 C10.37 14 6.74 14 3 14 C3 16.97 3 19.94 3 23 C6.96 23 10.92 23 15 23 C15 23.99 15 24.98 15 26 C10.05 26 5.1 26 0 26 C0 17.42 0 8.84 0 0 Z " fill="#F6F6F6" transform="translate(186,268)"/>
<path d="M0 0 C1.32 0 2.64 0 4 0 C5.0044134 2.2898234 6.00367612 4.5816599 7 6.875 C7.28617188 7.52597656 7.57234375 8.17695313 7.8671875 8.84765625 C10 13.7734375 10 13.7734375 10 16 C10.66 16 11.32 16 12 16 C12.18175781 15.43152344 12.36351562 14.86304688 12.55078125 14.27734375 C14.14084634 9.39298997 15.90459778 4.68970973 18 0 C19.32 0 20.64 0 22 0 C19.24892128 8.90054879 15.59701637 17.41643491 12 26 C11.34 26 10.68 26 10 26 C8.32760079 22.04406422 6.66305618 18.0848716 5 14.125 C4.52304688 12.99707031 4.04609375 11.86914062 3.5546875 10.70703125 C2.87792969 9.09248047 2.87792969 9.09248047 2.1875 7.4453125 C1.76855469 6.45031738 1.34960938 5.45532227 0.91796875 4.43017578 C0 2 0 2 0 0 Z " fill="#E9E9E9" transform="translate(156,268)"/>
<path d="M0 0 C0.99 0 1.98 0 3 0 C5.1875 2.5 5.1875 2.5 7 5 C10.16115776 3.63016497 10.9927092 3.0109362 13 0 C13.99 0 14.98 0 16 0 C16 5.61 16 11.22 16 17 C15.01 17 14.02 17 13 17 C12.67 13.37 12.34 9.74 12 6 C11.01 7.32 10.02 8.64 9 10 C5.125 8.125 5.125 8.125 4 7 C3.67 10.3 3.34 13.6 3 17 C2.01 17 1.02 17 0 17 C0 11.39 0 5.78 0 0 Z " fill="#C1C1C1" transform="translate(233,313)"/>
<path d="M0 0 C8.83928571 -0.66964286 8.83928571 -0.66964286 12.5625 2.0625 C15 5 15 5 15.6875 8.5 C15 12 15 12 13.125 14.9375 C8.58644572 17.93294582 5.37188068 17.35812538 0 17 C0 11.39 0 5.78 0 0 Z M2 3 C2 6.96 2 10.92 2 15 C7.02671047 15.43076581 7.02671047 15.43076581 11.4375 13.3125 C13.30408821 10.54994945 13.58649994 9.26764255 13 6 C12.10938785 4.02421261 12.10938785 4.02421261 10 3 C7.28125957 2.75332927 4.74116148 2.86518878 2 3 Z " fill="#DDDDDD" transform="translate(198,313)"/>
<path d="M0 0 C2.84323425 2.46802739 4.15880824 5.08454454 5.6875 8.5 C6.34298828 9.93859375 6.34298828 9.93859375 7.01171875 11.40625 C8 14 8 14 8 17 C7.34 17 6.68 17 6 17 C5.34 15.68 4.68 14.36 4 13 C1.69 13 -0.62 13 -3 13 C-3.66 14.32 -4.32 15.64 -5 17 C-5.66 17 -6.32 17 -7 17 C-5.1668733 11.00067626 -2.92678249 5.55079437 0 0 Z " fill="#E0E0E0" transform="translate(185,313)"/>
<path d="M0 0 C0.66 0 1.32 0 2 0 C3.00936536 2.078812 4.00717846 4.1632362 5 6.25 C5.556875 7.41015625 6.11375 8.5703125 6.6875 9.765625 C8 13 8 13 8 17 C7.34 17 6.68 17 6 17 C5.67 15.35 5.34 13.7 5 12 C2.36 12 -0.28 12 -3 12 C-3.66 13.65 -4.32 15.3 -5 17 C-5.66 17 -6.32 17 -7 17 C-5.1668733 11.00067626 -2.92678249 5.55079437 0 0 Z " fill="#E9E9E9" transform="translate(147,313)"/>
<path d="M0 0 C-0.33 0.99 -0.66 1.98 -1 3 C-2.27875 2.95875 -3.5575 2.9175 -4.875 2.875 C-7.01871492 2.75787127 -7.01871492 2.75787127 -9 3 C-9.66 3.66 -10.32 4.32 -11 5 C-10.83582968 8.56592619 -10.83582968 8.56592619 -10 12 C-7.71294169 13.14352916 -6.40735238 13.10334439 -3.875 13.0625 C-2.59625 13.041875 -1.3175 13.02125 0 13 C-0.33 13.99 -0.66 14.98 -1 16 C-9.03956273 16.77303488 -9.03956273 16.77303488 -12.5625 13.9375 C-14.35608261 10.27235293 -14.58674844 8.0338955 -14 4 C-9.56415093 -1.61874216 -6.58214959 -0.95547333 0 0 Z " fill="#E0E0E0" transform="translate(173,314)"/>
<path d="M0 0 C2.97 0 5.94 0 9 0 C9 0.66 9 1.32 9 2 C6.69 2 4.38 2 2 2 C2 3.65 2 5.3 2 7 C4.31 7 6.62 7 9 7 C9 7.66 9 8.32 9 9 C6.69 9 4.38 9 2 9 C2 10.65 2 12.3 2 14 C4.31 14 6.62 14 9 14 C9 14.66 9 15.32 9 16 C6.03 16 3.06 16 0 16 C0 10.72 0 5.44 0 0 Z " fill="#E5E5E5" transform="translate(219,314)"/>
<path d="M0 0 C0.99 0 1.98 0 3 0 C4.6875 2 4.6875 2 6 4 C9.12197478 2.6910428 9.12197478 2.6910428 11 0 C11.99 0 12.98 0 14 0 C12.98548404 2.1851113 12.08370965 3.90959357 10.4375 5.6875 C8.24813397 9.20952362 8.25258047 12.92387378 8 17 C7.34 17 6.68 17 6 17 C5.98582031 16.41992188 5.97164063 15.83984375 5.95703125 15.2421875 C5.58055291 9.07608273 4.22937708 6.44626822 0 2 C0 1.34 0 0.68 0 0 Z " fill="#DEDEDE" transform="translate(253,313)"/>
<path d="M0 0 C0.99 0 1.98 0 3 0 C3 5.61 3 11.22 3 17 C2.01 17 1.02 17 0 17 C0 13.04 0 9.08 0 5 C-0.66 5 -1.32 5 -2 5 C-1.34 3.35 -0.68 1.7 0 0 Z " fill="#C5C5C5" transform="translate(246,313)"/>
<path d="M0 0 C2.3125 0.5625 2.3125 0.5625 5 2 C6.85395348 5.51611868 8 8.00926247 8 12 C7.34 12 6.68 12 6 12 C5.34 10.02 4.68 8.04 4 6 C2.02 6 0.04 6 -2 6 C-1.34 4.02 -0.68 2.04 0 0 Z " fill="#A6A6A6" transform="translate(185,318)"/>
<path d="M0 0 C0.66 0 1.32 0 2 0 C3 7.75 3 7.75 3 10 C1.68 10 0.36 10 -1 10 C-2.23076923 4.58461538 -2.23076923 4.58461538 -1.0625 1.625 C-0.5365625 0.820625 -0.5365625 0.820625 0 0 Z " fill="#949494" transform="translate(147,313)"/>
<path d="M0 0 C-0.33 0.99 -0.66 1.98 -1 3 C-3.01822917 2.96744792 -5.03645833 2.93489583 -7.0546875 2.90234375 C-9.08185404 2.87350758 -9.08185404 2.87350758 -11 4 C-11.66 3.34 -12.32 2.68 -13 2 C-8.3683343 -1.61848883 -5.49434694 -1.02436977 0 0 Z " fill="#D6D6D6" transform="translate(173,314)"/>
<path d="M0 0 C0.33 0 0.66 0 1 0 C1 1.65 1 3.3 1 5 C2.32 5.33 3.64 5.66 5 6 C3.02 6 1.04 6 -1 6 C-1.33 7.65 -1.66 9.3 -2 11 C-2.99 11.33 -3.98 11.66 -5 12 C-4.54738642 10.56068883 -4.08767021 9.12361001 -3.625 7.6875 C-3.24214844 6.48673828 -3.24214844 6.48673828 -2.8515625 5.26171875 C-2 3 -2 3 0 0 Z " fill="#D6D6D6" transform="translate(145,318)"/>
<path d="M0 0 C0.33 1.32 0.66 2.64 1 4 C2.98 4 4.96 4 7 4 C7 4.33 7 4.66 7 5 C5.88625 5.0825 4.7725 5.165 3.625 5.25 C-0.05753944 5.57873787 -0.05753944 5.57873787 -1.4375 8.0625 C-1.7159375 9.0215625 -1.7159375 9.0215625 -2 10 C-2.66 10 -3.32 10 -4 10 C-3.52449439 8.51965236 -3.04448784 7.04074979 -2.5625 5.5625 C-2.29566406 4.73878906 -2.02882812 3.91507812 -1.75390625 3.06640625 C-1 1 -1 1 0 0 Z " fill="#E7E7E7" transform="translate(182,320)"/>
<path d="M0 0 C0.66 0 1.32 0 2 0 C1.979375 1.093125 1.95875 2.18625 1.9375 3.3125 C1.81455548 6.94384191 1.81455548 6.94384191 3 10 C2.01 10 1.02 10 0 10 C-1.49106457 7.01787087 -1.11941467 4.28390342 -1 1 C-0.67 0.67 -0.34 0.34 0 0 Z " fill="#ECECEC" transform="translate(160,317)"/>
<path d="M0 0 C1.98 0.99 1.98 0.99 4 2 C3.01 2.33 2.02 2.66 1 3 C1 6.96 1 10.92 1 15 C0.67 15 0.34 15 0 15 C0 10.05 0 5.1 0 0 Z " fill="#F8F8F8" transform="translate(234,314)"/>
<path d="M0 0 C0.66 0.99 1.32 1.98 2 3 C1.01 3 0.02 3 -1 3 C-1.33 2.67 -1.66 2.34 -2 2 C-3.34747084 1.76924918 -4.70377565 1.58846937 -6.0625 1.4375 C-7.361875 1.293125 -8.66125 1.14875 -10 1 C-10 0.67 -10 0.34 -10 0 C-6.33461636 -0.94252722 -3.63170285 -1.17784957 0 0 Z " fill="#D8D8D8" transform="translate(210,315)"/>
</svg>


